<mxfile host="app.diagrams.net" modified="2022-02-25T08:56:51.880Z" agent="5.0 (Windows NT 10.0; Win64; x64) AppleWebKit/537.36 (KHTML, like Gecko) Chrome/98.0.4758.102 Safari/537.36" etag="nQNTO2Ysh9igUWQCC6aP" version="16.6.4" type="github">
  <diagram id="iDwHChw52MIyQ1gdxTLp" name="Page-1">
    <mxGraphModel dx="2062" dy="1122" grid="1" gridSize="10" guides="1" tooltips="1" connect="1" arrows="1" fold="1" page="1" pageScale="1" pageWidth="1169" pageHeight="827" math="0" shadow="0">
      <root>
        <mxCell id="0" />
        <mxCell id="1" parent="0" />
        <mxCell id="l0DQeBJ68RX_tayqkEdG-1" style="edgeStyle=orthogonalEdgeStyle;rounded=0;orthogonalLoop=1;jettySize=auto;html=1;exitX=0.5;exitY=1;exitDx=0;exitDy=0;endArrow=oval;endFill=1;jumpStyle=arc;entryX=1;entryY=0.5;entryDx=0;entryDy=0;" edge="1" parent="1" source="l0DQeBJ68RX_tayqkEdG-106" target="l0DQeBJ68RX_tayqkEdG-120">
          <mxGeometry relative="1" as="geometry">
            <mxPoint x="120" y="620" as="targetPoint" />
            <Array as="points">
              <mxPoint x="390" y="660" />
              <mxPoint x="140" y="660" />
              <mxPoint x="140" y="630" />
            </Array>
          </mxGeometry>
        </mxCell>
        <mxCell id="l0DQeBJ68RX_tayqkEdG-2" style="edgeStyle=orthogonalEdgeStyle;rounded=0;orthogonalLoop=1;jettySize=auto;html=1;exitX=0.5;exitY=0;exitDx=0;exitDy=0;entryX=0.5;entryY=0;entryDx=0;entryDy=0;endArrow=oval;endFill=1;fillColor=#ffe6cc;strokeColor=#d79b00;jumpStyle=arc;" edge="1" parent="1" source="l0DQeBJ68RX_tayqkEdG-22" target="l0DQeBJ68RX_tayqkEdG-94">
          <mxGeometry relative="1" as="geometry">
            <Array as="points">
              <mxPoint x="1020" y="310" />
              <mxPoint x="490" y="310" />
            </Array>
          </mxGeometry>
        </mxCell>
        <mxCell id="l0DQeBJ68RX_tayqkEdG-3" value="ST&lt;br&gt;Opera&lt;br&gt;Rear&lt;br&gt;Effekt HiBÃ¼/Foyer&lt;br&gt;Foyer&lt;br&gt;Funk" style="edgeLabel;html=1;align=center;verticalAlign=middle;resizable=0;points=[];" vertex="1" connectable="0" parent="l0DQeBJ68RX_tayqkEdG-2">
          <mxGeometry x="-0.9522" y="1" relative="1" as="geometry">
            <mxPoint x="1" y="-41.55" as="offset" />
          </mxGeometry>
        </mxCell>
        <mxCell id="l0DQeBJ68RX_tayqkEdG-4" value="10x USB Stream" style="edgeLabel;html=1;align=center;verticalAlign=middle;resizable=0;points=[];" vertex="1" connectable="0" parent="l0DQeBJ68RX_tayqkEdG-2">
          <mxGeometry x="0.7483" y="-3" relative="1" as="geometry">
            <mxPoint as="offset" />
          </mxGeometry>
        </mxCell>
        <mxCell id="l0DQeBJ68RX_tayqkEdG-5" style="edgeStyle=orthogonalEdgeStyle;rounded=0;orthogonalLoop=1;jettySize=auto;html=1;entryX=0.5;entryY=0;entryDx=0;entryDy=0;endArrow=oval;endFill=1;fillColor=#dae8fc;strokeColor=#6c8ebf;exitX=1;exitY=0.5;exitDx=0;exitDy=0;jumpStyle=arc;" edge="1" parent="1" source="l0DQeBJ68RX_tayqkEdG-44" target="l0DQeBJ68RX_tayqkEdG-93">
          <mxGeometry relative="1" as="geometry">
            <Array as="points">
              <mxPoint x="700" y="150" />
              <mxPoint x="700" y="350" />
              <mxPoint x="510" y="350" />
            </Array>
          </mxGeometry>
        </mxCell>
        <mxCell id="l0DQeBJ68RX_tayqkEdG-6" style="edgeStyle=orthogonalEdgeStyle;rounded=0;orthogonalLoop=1;jettySize=auto;html=1;endArrow=oval;endFill=1;fillColor=#dae8fc;strokeColor=#6c8ebf;exitX=1;exitY=0.5;exitDx=0;exitDy=0;entryX=0;entryY=0.5;entryDx=0;entryDy=0;jumpStyle=arc;" edge="1" parent="1" source="l0DQeBJ68RX_tayqkEdG-39" target="l0DQeBJ68RX_tayqkEdG-32">
          <mxGeometry relative="1" as="geometry">
            <mxPoint x="830" y="190" as="sourcePoint" />
            <mxPoint x="760" y="360" as="targetPoint" />
            <Array as="points">
              <mxPoint x="720" y="125" />
              <mxPoint x="720" y="360" />
            </Array>
          </mxGeometry>
        </mxCell>
        <mxCell id="l0DQeBJ68RX_tayqkEdG-7" style="edgeStyle=orthogonalEdgeStyle;rounded=0;orthogonalLoop=1;jettySize=auto;html=1;exitX=0;exitY=0.25;exitDx=0;exitDy=0;entryX=1;entryY=0;entryDx=0;entryDy=0;endArrow=oval;endFill=1;jumpStyle=arc;" edge="1" parent="1" source="l0DQeBJ68RX_tayqkEdG-8" target="l0DQeBJ68RX_tayqkEdG-91">
          <mxGeometry relative="1" as="geometry">
            <mxPoint x="590.0000000000002" y="520.1379310344828" as="targetPoint" />
            <Array as="points">
              <mxPoint x="550" y="530" />
              <mxPoint x="550" y="530" />
            </Array>
          </mxGeometry>
        </mxCell>
        <mxCell id="l0DQeBJ68RX_tayqkEdG-8" value="CD1&amp;nbsp; &amp;nbsp;CD2" style="rounded=0;whiteSpace=wrap;html=1;" vertex="1" parent="1">
          <mxGeometry x="640" y="520" width="80" height="40" as="geometry" />
        </mxCell>
        <mxCell id="l0DQeBJ68RX_tayqkEdG-9" style="edgeStyle=orthogonalEdgeStyle;rounded=0;orthogonalLoop=1;jettySize=auto;html=1;entryX=1;entryY=0;entryDx=0;entryDy=0;exitX=0;exitY=0.5;exitDx=0;exitDy=0;endArrow=oval;endFill=1;jumpStyle=arc;" edge="1" parent="1" source="l0DQeBJ68RX_tayqkEdG-10" target="l0DQeBJ68RX_tayqkEdG-73">
          <mxGeometry relative="1" as="geometry">
            <mxPoint x="630" y="480" as="sourcePoint" />
            <Array as="points">
              <mxPoint x="600" y="480" />
              <mxPoint x="600" y="390" />
              <mxPoint x="180" y="390" />
            </Array>
          </mxGeometry>
        </mxCell>
        <mxCell id="l0DQeBJ68RX_tayqkEdG-10" value="DVD" style="rounded=0;whiteSpace=wrap;html=1;" vertex="1" parent="1">
          <mxGeometry x="640" y="460" width="80" height="40" as="geometry" />
        </mxCell>
        <mxCell id="l0DQeBJ68RX_tayqkEdG-11" value="Licht-Tonpult&lt;br&gt;Behringer" style="rounded=0;whiteSpace=wrap;html=1;" vertex="1" parent="1">
          <mxGeometry x="810" y="700" width="120" height="120" as="geometry" />
        </mxCell>
        <mxCell id="l0DQeBJ68RX_tayqkEdG-12" style="edgeStyle=orthogonalEdgeStyle;rounded=0;orthogonalLoop=1;jettySize=auto;html=1;exitX=0.5;exitY=0;exitDx=0;exitDy=0;endArrow=ERmany;endFill=0;endSize=13;" edge="1" parent="1" source="l0DQeBJ68RX_tayqkEdG-34">
          <mxGeometry relative="1" as="geometry">
            <mxPoint x="450" y="90" as="targetPoint" />
            <Array as="points">
              <mxPoint x="65" y="40" />
              <mxPoint x="450" y="40" />
              <mxPoint x="450" y="90" />
            </Array>
          </mxGeometry>
        </mxCell>
        <mxCell id="l0DQeBJ68RX_tayqkEdG-13" value="7" style="edgeLabel;html=1;align=center;verticalAlign=middle;resizable=0;points=[];" vertex="1" connectable="0" parent="l0DQeBJ68RX_tayqkEdG-12">
          <mxGeometry x="0.9103" y="-1" relative="1" as="geometry">
            <mxPoint x="1" y="-9.29" as="offset" />
          </mxGeometry>
        </mxCell>
        <mxCell id="l0DQeBJ68RX_tayqkEdG-14" style="edgeStyle=orthogonalEdgeStyle;rounded=0;orthogonalLoop=1;jettySize=auto;html=1;exitX=0.75;exitY=0;exitDx=0;exitDy=0;entryX=0;entryY=0.5;entryDx=0;entryDy=0;endArrow=oval;endFill=1;" edge="1" parent="1" source="l0DQeBJ68RX_tayqkEdG-34" target="l0DQeBJ68RX_tayqkEdG-41">
          <mxGeometry relative="1" as="geometry">
            <Array as="points">
              <mxPoint x="83" y="60" />
              <mxPoint x="410" y="60" />
              <mxPoint x="410" y="120" />
            </Array>
          </mxGeometry>
        </mxCell>
        <mxCell id="l0DQeBJ68RX_tayqkEdG-15" style="edgeStyle=orthogonalEdgeStyle;rounded=0;orthogonalLoop=1;jettySize=auto;html=1;exitX=0;exitY=0.5;exitDx=0;exitDy=0;entryX=0.5;entryY=1;entryDx=0;entryDy=0;endArrow=oval;endFill=1;strokeWidth=3;" edge="1" parent="1" source="l0DQeBJ68RX_tayqkEdG-17" target="l0DQeBJ68RX_tayqkEdG-28">
          <mxGeometry relative="1" as="geometry" />
        </mxCell>
        <mxCell id="l0DQeBJ68RX_tayqkEdG-16" value="8" style="edgeLabel;html=1;align=center;verticalAlign=middle;resizable=0;points=[];" vertex="1" connectable="0" parent="l0DQeBJ68RX_tayqkEdG-15">
          <mxGeometry x="0.3676" relative="1" as="geometry">
            <mxPoint as="offset" />
          </mxGeometry>
        </mxCell>
        <mxCell id="l0DQeBJ68RX_tayqkEdG-17" value="Funkstrecken&lt;br&gt;8-Channel" style="rounded=0;whiteSpace=wrap;html=1;" vertex="1" parent="1">
          <mxGeometry x="810" y="550" width="100" height="110" as="geometry" />
        </mxCell>
        <mxCell id="l0DQeBJ68RX_tayqkEdG-18" style="edgeStyle=orthogonalEdgeStyle;rounded=0;orthogonalLoop=1;jettySize=auto;html=1;exitX=0;exitY=0.25;exitDx=0;exitDy=0;entryX=0.5;entryY=0;entryDx=0;entryDy=0;endArrow=oval;endFill=1;jumpStyle=arc;" edge="1" parent="1" source="l0DQeBJ68RX_tayqkEdG-19" target="l0DQeBJ68RX_tayqkEdG-77">
          <mxGeometry relative="1" as="geometry">
            <Array as="points">
              <mxPoint x="580" y="590" />
              <mxPoint x="580" y="400" />
              <mxPoint x="250" y="400" />
            </Array>
          </mxGeometry>
        </mxCell>
        <mxCell id="l0DQeBJ68RX_tayqkEdG-19" value="Effekt Lexicon" style="rounded=0;whiteSpace=wrap;html=1;" vertex="1" parent="1">
          <mxGeometry x="640" y="580" width="80" height="40" as="geometry" />
        </mxCell>
        <mxCell id="l0DQeBJ68RX_tayqkEdG-20" style="edgeStyle=orthogonalEdgeStyle;rounded=0;orthogonalLoop=1;jettySize=auto;html=1;exitX=0;exitY=0.5;exitDx=0;exitDy=0;endArrow=oval;endFill=1;jumpStyle=arc;entryX=0.5;entryY=0;entryDx=0;entryDy=0;" edge="1" parent="1" source="l0DQeBJ68RX_tayqkEdG-21" target="l0DQeBJ68RX_tayqkEdG-78">
          <mxGeometry relative="1" as="geometry">
            <mxPoint x="230" y="440" as="targetPoint" />
            <Array as="points">
              <mxPoint x="560" y="660" />
              <mxPoint x="560" y="410" />
              <mxPoint x="270" y="410" />
            </Array>
          </mxGeometry>
        </mxCell>
        <mxCell id="l0DQeBJ68RX_tayqkEdG-21" value="PAD" style="rounded=0;whiteSpace=wrap;html=1;" vertex="1" parent="1">
          <mxGeometry x="640" y="640" width="80" height="40" as="geometry" />
        </mxCell>
        <mxCell id="l0DQeBJ68RX_tayqkEdG-22" value="MAC Pro" style="rounded=0;whiteSpace=wrap;html=1;" vertex="1" parent="1">
          <mxGeometry x="980" y="550" width="80" height="85" as="geometry" />
        </mxCell>
        <mxCell id="l0DQeBJ68RX_tayqkEdG-23" style="edgeStyle=orthogonalEdgeStyle;rounded=0;orthogonalLoop=1;jettySize=auto;html=1;exitX=0;exitY=0.5;exitDx=0;exitDy=0;entryX=0.5;entryY=1;entryDx=0;entryDy=0;endArrow=oval;endFill=1;" edge="1" parent="1" source="l0DQeBJ68RX_tayqkEdG-25" target="l0DQeBJ68RX_tayqkEdG-29">
          <mxGeometry relative="1" as="geometry" />
        </mxCell>
        <mxCell id="l0DQeBJ68RX_tayqkEdG-24" value="4" style="edgeLabel;html=1;align=center;verticalAlign=middle;resizable=0;points=[];" vertex="1" connectable="0" parent="l0DQeBJ68RX_tayqkEdG-23">
          <mxGeometry x="-0.444" relative="1" as="geometry">
            <mxPoint as="offset" />
          </mxGeometry>
        </mxCell>
        <mxCell id="l0DQeBJ68RX_tayqkEdG-25" value="Funkstrecken&lt;br&gt;4-Channel" style="rounded=0;whiteSpace=wrap;html=1;" vertex="1" parent="1">
          <mxGeometry x="810" y="490" width="100" height="50" as="geometry" />
        </mxCell>
        <mxCell id="l0DQeBJ68RX_tayqkEdG-26" value="" style="group" vertex="1" connectable="0" parent="1">
          <mxGeometry x="740" y="330" width="170" height="100" as="geometry" />
        </mxCell>
        <mxCell id="l0DQeBJ68RX_tayqkEdG-27" value="DX168 #2" style="rounded=0;whiteSpace=wrap;html=1;" vertex="1" parent="l0DQeBJ68RX_tayqkEdG-26">
          <mxGeometry width="170" height="100" as="geometry" />
        </mxCell>
        <mxCell id="l0DQeBJ68RX_tayqkEdG-28" value="IN 1-8" style="rounded=0;whiteSpace=wrap;html=1;" vertex="1" parent="l0DQeBJ68RX_tayqkEdG-26">
          <mxGeometry y="80" width="50" height="20" as="geometry" />
        </mxCell>
        <mxCell id="l0DQeBJ68RX_tayqkEdG-29" value="IN 9-12" style="rounded=0;whiteSpace=wrap;html=1;" vertex="1" parent="l0DQeBJ68RX_tayqkEdG-26">
          <mxGeometry x="50" y="80" width="60" height="20" as="geometry" />
        </mxCell>
        <mxCell id="l0DQeBJ68RX_tayqkEdG-30" value="IN 13-16" style="rounded=0;whiteSpace=wrap;html=1;" vertex="1" parent="l0DQeBJ68RX_tayqkEdG-26">
          <mxGeometry x="110" y="80" width="60" height="20" as="geometry" />
        </mxCell>
        <mxCell id="l0DQeBJ68RX_tayqkEdG-31" value="" style="endArrow=none;html=1;exitX=1;exitY=1;exitDx=0;exitDy=0;" edge="1" parent="l0DQeBJ68RX_tayqkEdG-26" source="l0DQeBJ68RX_tayqkEdG-30">
          <mxGeometry width="50" height="50" relative="1" as="geometry">
            <mxPoint x="60" y="130" as="sourcePoint" />
            <mxPoint x="110" y="80" as="targetPoint" />
          </mxGeometry>
        </mxCell>
        <mxCell id="l0DQeBJ68RX_tayqkEdG-32" value="SLINK 1" style="rounded=0;whiteSpace=wrap;html=1;" vertex="1" parent="l0DQeBJ68RX_tayqkEdG-26">
          <mxGeometry y="20" width="50" height="20" as="geometry" />
        </mxCell>
        <mxCell id="l0DQeBJ68RX_tayqkEdG-33" value="" style="group;align=left;verticalAlign=top;" vertex="1" connectable="0" parent="1">
          <mxGeometry x="30" y="70" width="70" height="120" as="geometry" />
        </mxCell>
        <mxCell id="l0DQeBJ68RX_tayqkEdG-34" value="Stagebox" style="rounded=0;whiteSpace=wrap;html=1;align=left;verticalAlign=top;" vertex="1" parent="l0DQeBJ68RX_tayqkEdG-33">
          <mxGeometry width="70" height="120" as="geometry" />
        </mxCell>
        <mxCell id="l0DQeBJ68RX_tayqkEdG-35" value="OUT 1" style="rounded=0;whiteSpace=wrap;html=1;" vertex="1" parent="l0DQeBJ68RX_tayqkEdG-33">
          <mxGeometry x="20" y="100" width="50" height="20" as="geometry" />
        </mxCell>
        <mxCell id="l0DQeBJ68RX_tayqkEdG-36" value="IN 1-7" style="rounded=0;whiteSpace=wrap;html=1;" vertex="1" parent="l0DQeBJ68RX_tayqkEdG-33">
          <mxGeometry x="20" y="70" width="50" height="20" as="geometry" />
        </mxCell>
        <mxCell id="l0DQeBJ68RX_tayqkEdG-37" value="BÃ¼hne" style="shape=process;whiteSpace=wrap;html=1;backgroundOutline=1;size=0.07692307692307693;strokeColor=#CCCCCC;" vertex="1" parent="1">
          <mxGeometry x="130" y="120" width="260" height="100" as="geometry" />
        </mxCell>
        <mxCell id="l0DQeBJ68RX_tayqkEdG-38" value="" style="group" vertex="1" connectable="0" parent="1">
          <mxGeometry x="480" y="70" width="200" height="110" as="geometry" />
        </mxCell>
        <mxCell id="l0DQeBJ68RX_tayqkEdG-39" value="DX168 #1" style="rounded=0;whiteSpace=wrap;html=1;" vertex="1" parent="l0DQeBJ68RX_tayqkEdG-38">
          <mxGeometry width="200" height="110" as="geometry" />
        </mxCell>
        <mxCell id="l0DQeBJ68RX_tayqkEdG-40" value="IN 1-10" style="rounded=0;whiteSpace=wrap;html=1;" vertex="1" parent="l0DQeBJ68RX_tayqkEdG-38">
          <mxGeometry width="50" height="20" as="geometry" />
        </mxCell>
        <mxCell id="l0DQeBJ68RX_tayqkEdG-41" value="OUT 1" style="rounded=0;whiteSpace=wrap;html=1;" vertex="1" parent="l0DQeBJ68RX_tayqkEdG-38">
          <mxGeometry y="40" width="50" height="20" as="geometry" />
        </mxCell>
        <mxCell id="l0DQeBJ68RX_tayqkEdG-42" value="OUT 2" style="rounded=0;whiteSpace=wrap;html=1;" vertex="1" parent="l0DQeBJ68RX_tayqkEdG-38">
          <mxGeometry y="60" width="50" height="20" as="geometry" />
        </mxCell>
        <mxCell id="l0DQeBJ68RX_tayqkEdG-43" value="OUT 8" style="rounded=0;whiteSpace=wrap;html=1;" vertex="1" parent="l0DQeBJ68RX_tayqkEdG-38">
          <mxGeometry y="90" width="50" height="20" as="geometry" />
        </mxCell>
        <mxCell id="l0DQeBJ68RX_tayqkEdG-44" value="SLINK 2" style="rounded=0;whiteSpace=wrap;html=1;" vertex="1" parent="l0DQeBJ68RX_tayqkEdG-38">
          <mxGeometry x="150" y="70" width="50" height="20" as="geometry" />
        </mxCell>
        <mxCell id="l0DQeBJ68RX_tayqkEdG-45" value="SLINK 1" style="rounded=0;whiteSpace=wrap;html=1;" vertex="1" parent="l0DQeBJ68RX_tayqkEdG-38">
          <mxGeometry x="150" y="45" width="50" height="20" as="geometry" />
        </mxCell>
        <mxCell id="l0DQeBJ68RX_tayqkEdG-46" value="IN 11-14" style="rounded=0;whiteSpace=wrap;html=1;" vertex="1" parent="l0DQeBJ68RX_tayqkEdG-38">
          <mxGeometry x="50" width="50" height="20" as="geometry" />
        </mxCell>
        <mxCell id="l0DQeBJ68RX_tayqkEdG-47" value="" style="endArrow=none;html=1;entryX=1;entryY=1;entryDx=0;entryDy=0;exitX=0;exitY=0;exitDx=0;exitDy=0;" edge="1" parent="l0DQeBJ68RX_tayqkEdG-38" source="l0DQeBJ68RX_tayqkEdG-46" target="l0DQeBJ68RX_tayqkEdG-46">
          <mxGeometry width="50" height="50" relative="1" as="geometry">
            <mxPoint x="80" y="-40" as="sourcePoint" />
            <mxPoint x="100" as="targetPoint" />
          </mxGeometry>
        </mxCell>
        <mxCell id="l0DQeBJ68RX_tayqkEdG-48" value="IN 15-16" style="rounded=0;whiteSpace=wrap;html=1;" vertex="1" parent="l0DQeBJ68RX_tayqkEdG-38">
          <mxGeometry x="100" width="50" height="20" as="geometry" />
        </mxCell>
        <mxCell id="l0DQeBJ68RX_tayqkEdG-49" style="edgeStyle=orthogonalEdgeStyle;rounded=0;orthogonalLoop=1;jettySize=auto;html=1;exitX=0.5;exitY=0;exitDx=0;exitDy=0;entryX=0;entryY=0.5;entryDx=0;entryDy=0;endArrow=oval;endFill=1;" edge="1" parent="1" source="l0DQeBJ68RX_tayqkEdG-50" target="l0DQeBJ68RX_tayqkEdG-43">
          <mxGeometry relative="1" as="geometry">
            <Array as="points">
              <mxPoint x="448" y="170" />
            </Array>
          </mxGeometry>
        </mxCell>
        <mxCell id="l0DQeBJ68RX_tayqkEdG-50" value="Funk" style="rounded=0;whiteSpace=wrap;html=1;align=center;" vertex="1" parent="1">
          <mxGeometry x="430" y="190" width="35" height="60" as="geometry" />
        </mxCell>
        <mxCell id="l0DQeBJ68RX_tayqkEdG-51" value="" style="group" vertex="1" connectable="0" parent="1">
          <mxGeometry x="800" y="70" width="120" height="140" as="geometry" />
        </mxCell>
        <mxCell id="l0DQeBJ68RX_tayqkEdG-52" value="Stagebox" style="rounded=0;whiteSpace=wrap;html=1;align=left;verticalAlign=top;" vertex="1" parent="l0DQeBJ68RX_tayqkEdG-51">
          <mxGeometry width="120" height="140" as="geometry" />
        </mxCell>
        <mxCell id="l0DQeBJ68RX_tayqkEdG-53" value="OUT 2" style="rounded=0;whiteSpace=wrap;html=1;" vertex="1" parent="l0DQeBJ68RX_tayqkEdG-51">
          <mxGeometry x="-0.004285714285714448" y="100" width="85.71428571428571" height="20" as="geometry" />
        </mxCell>
        <mxCell id="l0DQeBJ68RX_tayqkEdG-54" value="IN 3-16" style="rounded=0;whiteSpace=wrap;html=1;" vertex="1" parent="l0DQeBJ68RX_tayqkEdG-51">
          <mxGeometry x="-0.004285714285714448" y="50" width="85.71428571428571" height="20" as="geometry" />
        </mxCell>
        <mxCell id="l0DQeBJ68RX_tayqkEdG-55" value="OUT 1" style="rounded=0;whiteSpace=wrap;html=1;" vertex="1" parent="l0DQeBJ68RX_tayqkEdG-51">
          <mxGeometry x="-0.00428571428574287" y="80" width="85.71428571428571" height="20" as="geometry" />
        </mxCell>
        <mxCell id="l0DQeBJ68RX_tayqkEdG-56" value="IN 1-2" style="rounded=0;whiteSpace=wrap;html=1;" vertex="1" parent="l0DQeBJ68RX_tayqkEdG-51">
          <mxGeometry x="-0.00428571428574287" y="30" width="85.71428571428571" height="20" as="geometry" />
        </mxCell>
        <mxCell id="l0DQeBJ68RX_tayqkEdG-57" value="OUT 3-8" style="rounded=0;whiteSpace=wrap;html=1;" vertex="1" parent="l0DQeBJ68RX_tayqkEdG-51">
          <mxGeometry x="-0.00428571428574287" y="120" width="85.71428571428571" height="20" as="geometry" />
        </mxCell>
        <mxCell id="l0DQeBJ68RX_tayqkEdG-58" value="" style="endArrow=none;html=1;strokeWidth=1;exitX=1;exitY=1;exitDx=0;exitDy=0;entryX=0;entryY=0;entryDx=0;entryDy=0;strokeColor=#999999;" edge="1" parent="l0DQeBJ68RX_tayqkEdG-51">
          <mxGeometry width="50" height="50" relative="1" as="geometry">
            <mxPoint x="85.71000000000004" y="70" as="sourcePoint" />
            <mxPoint x="-0.00428571428574287" y="50" as="targetPoint" />
          </mxGeometry>
        </mxCell>
        <mxCell id="l0DQeBJ68RX_tayqkEdG-59" value="" style="endArrow=none;html=1;strokeWidth=1;exitX=1;exitY=1;exitDx=0;exitDy=0;entryX=0;entryY=0;entryDx=0;entryDy=0;strokeColor=#999999;" edge="1" parent="l0DQeBJ68RX_tayqkEdG-51">
          <mxGeometry width="50" height="50" relative="1" as="geometry">
            <mxPoint x="85.71000000000004" y="140" as="sourcePoint" />
            <mxPoint x="-0.00428571428574287" y="120" as="targetPoint" />
          </mxGeometry>
        </mxCell>
        <mxCell id="l0DQeBJ68RX_tayqkEdG-60" style="edgeStyle=orthogonalEdgeStyle;rounded=0;jumpStyle=arc;orthogonalLoop=1;jettySize=auto;html=1;exitX=1;exitY=0.5;exitDx=0;exitDy=0;entryX=1;entryY=0.5;entryDx=0;entryDy=0;endArrow=oval;endFill=1;strokeWidth=3;" edge="1" parent="1" source="l0DQeBJ68RX_tayqkEdG-52" target="l0DQeBJ68RX_tayqkEdG-11">
          <mxGeometry relative="1" as="geometry">
            <Array as="points">
              <mxPoint x="950" y="140" />
              <mxPoint x="950" y="760" />
            </Array>
          </mxGeometry>
        </mxCell>
        <mxCell id="l0DQeBJ68RX_tayqkEdG-61" value="16/8" style="edgeLabel;html=1;align=center;verticalAlign=middle;resizable=0;points=[];" vertex="1" connectable="0" parent="l0DQeBJ68RX_tayqkEdG-60">
          <mxGeometry x="0.7503" relative="1" as="geometry">
            <mxPoint as="offset" />
          </mxGeometry>
        </mxCell>
        <mxCell id="l0DQeBJ68RX_tayqkEdG-62" value="Multicore" style="edgeLabel;html=1;align=center;verticalAlign=middle;resizable=0;points=[];" vertex="1" connectable="0" parent="l0DQeBJ68RX_tayqkEdG-60">
          <mxGeometry x="-0.6648" y="-3" relative="1" as="geometry">
            <mxPoint as="offset" />
          </mxGeometry>
        </mxCell>
        <mxCell id="l0DQeBJ68RX_tayqkEdG-63" style="edgeStyle=orthogonalEdgeStyle;rounded=0;jumpStyle=arc;orthogonalLoop=1;jettySize=auto;html=1;exitX=0;exitY=0.5;exitDx=0;exitDy=0;entryX=0.5;entryY=0;entryDx=0;entryDy=0;endArrow=oval;endFill=1;endSize=6;strokeWidth=1;" edge="1" parent="1" source="l0DQeBJ68RX_tayqkEdG-55" target="l0DQeBJ68RX_tayqkEdG-48">
          <mxGeometry relative="1" as="geometry">
            <Array as="points">
              <mxPoint x="750" y="160" />
              <mxPoint x="750" y="50" />
              <mxPoint x="605" y="50" />
            </Array>
          </mxGeometry>
        </mxCell>
        <mxCell id="l0DQeBJ68RX_tayqkEdG-64" style="edgeStyle=orthogonalEdgeStyle;rounded=0;jumpStyle=arc;orthogonalLoop=1;jettySize=auto;html=1;exitX=0;exitY=0.5;exitDx=0;exitDy=0;entryX=0.626;entryY=-0.008;entryDx=0;entryDy=0;entryPerimeter=0;endArrow=oval;endFill=1;endSize=6;strokeWidth=1;" edge="1" parent="1" source="l0DQeBJ68RX_tayqkEdG-53" target="l0DQeBJ68RX_tayqkEdG-39">
          <mxGeometry relative="1" as="geometry">
            <Array as="points">
              <mxPoint x="750" y="180" />
              <mxPoint x="750" y="50" />
              <mxPoint x="605" y="50" />
            </Array>
          </mxGeometry>
        </mxCell>
        <mxCell id="l0DQeBJ68RX_tayqkEdG-65" style="edgeStyle=orthogonalEdgeStyle;rounded=0;jumpStyle=arc;orthogonalLoop=1;jettySize=auto;html=1;exitX=0;exitY=0.5;exitDx=0;exitDy=0;entryX=0.865;entryY=0.006;entryDx=0;entryDy=0;entryPerimeter=0;endArrow=oval;endFill=1;endSize=6;strokeWidth=1;" edge="1" parent="1" source="l0DQeBJ68RX_tayqkEdG-56" target="l0DQeBJ68RX_tayqkEdG-37">
          <mxGeometry relative="1" as="geometry">
            <Array as="points">
              <mxPoint x="770" y="110" />
              <mxPoint x="770" y="20" />
              <mxPoint x="355" y="20" />
            </Array>
          </mxGeometry>
        </mxCell>
        <mxCell id="l0DQeBJ68RX_tayqkEdG-66" style="edgeStyle=orthogonalEdgeStyle;rounded=0;jumpStyle=arc;orthogonalLoop=1;jettySize=auto;html=1;exitX=0;exitY=0.5;exitDx=0;exitDy=0;entryX=0.13;entryY=0.001;entryDx=0;entryDy=0;entryPerimeter=0;endArrow=oval;endFill=1;endSize=6;strokeColor=#000000;strokeWidth=1;" edge="1" parent="1" source="l0DQeBJ68RX_tayqkEdG-56" target="l0DQeBJ68RX_tayqkEdG-37">
          <mxGeometry relative="1" as="geometry">
            <Array as="points">
              <mxPoint x="770" y="110" />
              <mxPoint x="770" y="20" />
              <mxPoint x="164" y="20" />
            </Array>
          </mxGeometry>
        </mxCell>
        <mxCell id="l0DQeBJ68RX_tayqkEdG-67" style="edgeStyle=orthogonalEdgeStyle;rounded=0;jumpStyle=arc;orthogonalLoop=1;jettySize=auto;html=1;exitX=0;exitY=0.5;exitDx=0;exitDy=0;entryX=0.5;entryY=0;entryDx=0;entryDy=0;endArrow=oval;endFill=1;endSize=6;strokeColor=#000000;strokeWidth=1;" edge="1" parent="1" source="l0DQeBJ68RX_tayqkEdG-68" target="l0DQeBJ68RX_tayqkEdG-79">
          <mxGeometry relative="1" as="geometry">
            <Array as="points">
              <mxPoint x="540" y="720" />
              <mxPoint x="540" y="420" />
              <mxPoint x="290" y="420" />
            </Array>
          </mxGeometry>
        </mxCell>
        <mxCell id="l0DQeBJ68RX_tayqkEdG-68" value="PS4" style="rounded=0;whiteSpace=wrap;html=1;" vertex="1" parent="1">
          <mxGeometry x="640" y="700" width="80" height="40" as="geometry" />
        </mxCell>
        <mxCell id="l0DQeBJ68RX_tayqkEdG-69" style="edgeStyle=orthogonalEdgeStyle;rounded=0;jumpStyle=arc;orthogonalLoop=1;jettySize=auto;html=1;exitX=1;exitY=0.5;exitDx=0;exitDy=0;entryX=0;entryY=0;entryDx=0;entryDy=0;endArrow=oval;endFill=1;endSize=6;strokeColor=#000000;strokeWidth=1;" edge="1" parent="1" source="l0DQeBJ68RX_tayqkEdG-70" target="l0DQeBJ68RX_tayqkEdG-76">
          <mxGeometry relative="1" as="geometry" />
        </mxCell>
        <mxCell id="l0DQeBJ68RX_tayqkEdG-70" value="Probe" style="rounded=0;whiteSpace=wrap;html=1;" vertex="1" parent="1">
          <mxGeometry x="130" y="290" width="65" height="40" as="geometry" />
        </mxCell>
        <mxCell id="l0DQeBJ68RX_tayqkEdG-71" value="" style="group" vertex="1" connectable="0" parent="1">
          <mxGeometry x="160" y="450" width="360" height="190" as="geometry" />
        </mxCell>
        <mxCell id="l0DQeBJ68RX_tayqkEdG-72" value="Allen&amp;amp;Heath&lt;br&gt;SQ5" style="rounded=0;whiteSpace=wrap;html=1;" vertex="1" parent="l0DQeBJ68RX_tayqkEdG-71">
          <mxGeometry width="360" height="190" as="geometry" />
        </mxCell>
        <mxCell id="l0DQeBJ68RX_tayqkEdG-73" value="&lt;font size=&quot;3&quot;&gt;IN1&lt;/font&gt;" style="rounded=0;whiteSpace=wrap;html=1;rotation=0;rotatable=1;horizontal=0;" vertex="1" parent="l0DQeBJ68RX_tayqkEdG-71">
          <mxGeometry width="20" height="50" as="geometry" />
        </mxCell>
        <mxCell id="l0DQeBJ68RX_tayqkEdG-74" value="&lt;font size=&quot;3&quot;&gt;IN2&lt;/font&gt;" style="rounded=0;whiteSpace=wrap;html=1;rotation=0;rotatable=1;horizontal=0;" vertex="1" parent="l0DQeBJ68RX_tayqkEdG-71">
          <mxGeometry x="20" width="20" height="50" as="geometry" />
        </mxCell>
        <mxCell id="l0DQeBJ68RX_tayqkEdG-75" value="&lt;font size=&quot;3&quot;&gt;IN3&lt;br&gt;&lt;/font&gt;" style="rounded=0;whiteSpace=wrap;html=1;rotation=0;rotatable=1;horizontal=0;" vertex="1" parent="l0DQeBJ68RX_tayqkEdG-71">
          <mxGeometry x="40" width="20" height="50" as="geometry" />
        </mxCell>
        <mxCell id="l0DQeBJ68RX_tayqkEdG-76" value="&lt;font size=&quot;3&quot;&gt;IN4&lt;/font&gt;" style="rounded=0;whiteSpace=wrap;html=1;rotation=0;rotatable=1;horizontal=0;" vertex="1" parent="l0DQeBJ68RX_tayqkEdG-71">
          <mxGeometry x="60" width="20" height="50" as="geometry" />
        </mxCell>
        <mxCell id="l0DQeBJ68RX_tayqkEdG-77" value="&lt;font size=&quot;3&quot;&gt;IN5&lt;br&gt;&lt;/font&gt;" style="rounded=0;whiteSpace=wrap;html=1;rotation=0;rotatable=1;horizontal=0;" vertex="1" parent="l0DQeBJ68RX_tayqkEdG-71">
          <mxGeometry x="80" width="20" height="50" as="geometry" />
        </mxCell>
        <mxCell id="l0DQeBJ68RX_tayqkEdG-78" value="&lt;font size=&quot;3&quot;&gt;IN6&lt;/font&gt;" style="rounded=0;whiteSpace=wrap;html=1;rotation=0;rotatable=1;horizontal=0;" vertex="1" parent="l0DQeBJ68RX_tayqkEdG-71">
          <mxGeometry x="100" width="20" height="50" as="geometry" />
        </mxCell>
        <mxCell id="l0DQeBJ68RX_tayqkEdG-79" value="&lt;font size=&quot;3&quot;&gt;IN7&lt;/font&gt;" style="rounded=0;whiteSpace=wrap;html=1;rotation=0;rotatable=1;horizontal=0;" vertex="1" parent="l0DQeBJ68RX_tayqkEdG-71">
          <mxGeometry x="120" width="20" height="50" as="geometry" />
        </mxCell>
        <mxCell id="l0DQeBJ68RX_tayqkEdG-80" value="&lt;font size=&quot;3&quot;&gt;IN8&lt;/font&gt;" style="rounded=0;whiteSpace=wrap;html=1;rotation=0;rotatable=1;horizontal=0;" vertex="1" parent="l0DQeBJ68RX_tayqkEdG-71">
          <mxGeometry x="140" width="20" height="50" as="geometry" />
        </mxCell>
        <mxCell id="l0DQeBJ68RX_tayqkEdG-81" value="&lt;font size=&quot;3&quot;&gt;IN9&lt;/font&gt;" style="rounded=0;whiteSpace=wrap;html=1;rotation=0;rotatable=1;horizontal=0;" vertex="1" parent="l0DQeBJ68RX_tayqkEdG-71">
          <mxGeometry x="160" width="20" height="50" as="geometry" />
        </mxCell>
        <mxCell id="l0DQeBJ68RX_tayqkEdG-82" value="&lt;font size=&quot;3&quot;&gt;IN10&lt;br&gt;&lt;/font&gt;" style="rounded=0;whiteSpace=wrap;html=1;rotation=0;rotatable=1;horizontal=0;" vertex="1" parent="l0DQeBJ68RX_tayqkEdG-71">
          <mxGeometry x="180" width="20" height="50" as="geometry" />
        </mxCell>
        <mxCell id="l0DQeBJ68RX_tayqkEdG-83" value="&lt;font size=&quot;3&quot;&gt;IN11&lt;/font&gt;" style="rounded=0;whiteSpace=wrap;html=1;rotation=0;rotatable=1;horizontal=0;" vertex="1" parent="l0DQeBJ68RX_tayqkEdG-71">
          <mxGeometry x="200" width="20" height="50" as="geometry" />
        </mxCell>
        <mxCell id="l0DQeBJ68RX_tayqkEdG-84" value="&lt;font size=&quot;3&quot;&gt;IN12&lt;/font&gt;" style="rounded=0;whiteSpace=wrap;html=1;rotation=0;rotatable=1;horizontal=0;" vertex="1" parent="l0DQeBJ68RX_tayqkEdG-71">
          <mxGeometry x="220" width="20" height="50" as="geometry" />
        </mxCell>
        <mxCell id="l0DQeBJ68RX_tayqkEdG-85" value="&lt;font size=&quot;3&quot;&gt;IN13&lt;/font&gt;" style="rounded=0;whiteSpace=wrap;html=1;rotation=0;rotatable=1;horizontal=0;" vertex="1" parent="l0DQeBJ68RX_tayqkEdG-71">
          <mxGeometry x="240" width="20" height="50" as="geometry" />
        </mxCell>
        <mxCell id="l0DQeBJ68RX_tayqkEdG-86" value="&lt;font size=&quot;3&quot;&gt;IN14&lt;br&gt;&lt;/font&gt;" style="rounded=0;whiteSpace=wrap;html=1;rotation=0;rotatable=1;horizontal=0;" vertex="1" parent="l0DQeBJ68RX_tayqkEdG-71">
          <mxGeometry x="260" width="20" height="50" as="geometry" />
        </mxCell>
        <mxCell id="l0DQeBJ68RX_tayqkEdG-87" value="&lt;font size=&quot;3&quot;&gt;IN15&lt;/font&gt;" style="rounded=0;whiteSpace=wrap;html=1;rotation=0;rotatable=1;horizontal=0;" vertex="1" parent="l0DQeBJ68RX_tayqkEdG-71">
          <mxGeometry x="280" width="20" height="50" as="geometry" />
        </mxCell>
        <mxCell id="l0DQeBJ68RX_tayqkEdG-88" value="&lt;font size=&quot;3&quot;&gt;IN16&lt;/font&gt;" style="rounded=0;whiteSpace=wrap;html=1;rotation=0;rotatable=1;horizontal=0;" vertex="1" parent="l0DQeBJ68RX_tayqkEdG-71">
          <mxGeometry x="300" width="20" height="50" as="geometry" />
        </mxCell>
        <mxCell id="l0DQeBJ68RX_tayqkEdG-89" style="edgeStyle=orthogonalEdgeStyle;rounded=0;orthogonalLoop=1;jettySize=auto;html=1;exitX=1;exitY=1;exitDx=0;exitDy=0;entryX=1;entryY=0;entryDx=0;entryDy=0;endArrow=oval;endFill=1;" edge="1" parent="l0DQeBJ68RX_tayqkEdG-71" source="l0DQeBJ68RX_tayqkEdG-90" target="l0DQeBJ68RX_tayqkEdG-91">
          <mxGeometry relative="1" as="geometry" />
        </mxCell>
        <mxCell id="l0DQeBJ68RX_tayqkEdG-90" value="ST IN 1" style="rounded=0;whiteSpace=wrap;html=1;" vertex="1" parent="l0DQeBJ68RX_tayqkEdG-71">
          <mxGeometry x="290" y="60" width="70" height="20" as="geometry" />
        </mxCell>
        <mxCell id="l0DQeBJ68RX_tayqkEdG-91" value="ST IN 2" style="rounded=0;whiteSpace=wrap;html=1;" vertex="1" parent="l0DQeBJ68RX_tayqkEdG-71">
          <mxGeometry x="290" y="80" width="70" height="20" as="geometry" />
        </mxCell>
        <mxCell id="l0DQeBJ68RX_tayqkEdG-92" value="ST IN 3" style="rounded=0;whiteSpace=wrap;html=1;" vertex="1" parent="l0DQeBJ68RX_tayqkEdG-71">
          <mxGeometry x="290" y="100" width="70" height="20" as="geometry" />
        </mxCell>
        <mxCell id="l0DQeBJ68RX_tayqkEdG-93" value="&lt;font size=&quot;3&quot;&gt;SLink&lt;/font&gt;" style="rounded=0;whiteSpace=wrap;html=1;rotation=0;rotatable=1;horizontal=0;" vertex="1" parent="l0DQeBJ68RX_tayqkEdG-71">
          <mxGeometry x="339.99999999999994" width="20" height="50" as="geometry" />
        </mxCell>
        <mxCell id="l0DQeBJ68RX_tayqkEdG-94" value="&lt;font size=&quot;3&quot;&gt;USB&lt;/font&gt;" style="rounded=0;whiteSpace=wrap;html=1;rotation=0;rotatable=1;horizontal=0;" vertex="1" parent="l0DQeBJ68RX_tayqkEdG-71">
          <mxGeometry x="319.99999999999994" width="20" height="50" as="geometry" />
        </mxCell>
        <mxCell id="l0DQeBJ68RX_tayqkEdG-95" value="&lt;font size=&quot;3&quot;&gt;OUT1&lt;/font&gt;" style="rounded=0;whiteSpace=wrap;html=1;rotation=0;rotatable=1;horizontal=0;" vertex="1" parent="l0DQeBJ68RX_tayqkEdG-71">
          <mxGeometry y="130" width="20" height="60" as="geometry" />
        </mxCell>
        <mxCell id="l0DQeBJ68RX_tayqkEdG-96" value="&lt;font size=&quot;3&quot;&gt;OUT2&lt;/font&gt;" style="rounded=0;whiteSpace=wrap;html=1;rotation=0;rotatable=1;horizontal=0;" vertex="1" parent="l0DQeBJ68RX_tayqkEdG-71">
          <mxGeometry x="20" y="130" width="20" height="60" as="geometry" />
        </mxCell>
        <mxCell id="l0DQeBJ68RX_tayqkEdG-97" value="&lt;font size=&quot;3&quot;&gt;OUT3&lt;/font&gt;" style="rounded=0;whiteSpace=wrap;html=1;rotation=0;rotatable=1;horizontal=0;" vertex="1" parent="l0DQeBJ68RX_tayqkEdG-71">
          <mxGeometry x="40" y="130" width="20" height="60" as="geometry" />
        </mxCell>
        <mxCell id="l0DQeBJ68RX_tayqkEdG-98" value="&lt;font size=&quot;3&quot;&gt;OUT4&lt;/font&gt;" style="rounded=0;whiteSpace=wrap;html=1;rotation=0;rotatable=1;horizontal=0;" vertex="1" parent="l0DQeBJ68RX_tayqkEdG-71">
          <mxGeometry x="60" y="130" width="20" height="60" as="geometry" />
        </mxCell>
        <mxCell id="l0DQeBJ68RX_tayqkEdG-99" value="&lt;font size=&quot;3&quot;&gt;OUT5&lt;/font&gt;" style="rounded=0;whiteSpace=wrap;html=1;rotation=0;rotatable=1;horizontal=0;" vertex="1" parent="l0DQeBJ68RX_tayqkEdG-71">
          <mxGeometry x="80" y="130" width="20" height="60" as="geometry" />
        </mxCell>
        <mxCell id="l0DQeBJ68RX_tayqkEdG-100" value="&lt;font size=&quot;3&quot;&gt;OUT6&lt;/font&gt;" style="rounded=0;whiteSpace=wrap;html=1;rotation=0;rotatable=1;horizontal=0;" vertex="1" parent="l0DQeBJ68RX_tayqkEdG-71">
          <mxGeometry x="100" y="130" width="20" height="60" as="geometry" />
        </mxCell>
        <mxCell id="l0DQeBJ68RX_tayqkEdG-101" value="&lt;font size=&quot;3&quot;&gt;OUT7&lt;/font&gt;" style="rounded=0;whiteSpace=wrap;html=1;rotation=0;rotatable=1;horizontal=0;" vertex="1" parent="l0DQeBJ68RX_tayqkEdG-71">
          <mxGeometry x="120" y="130" width="20" height="60" as="geometry" />
        </mxCell>
        <mxCell id="l0DQeBJ68RX_tayqkEdG-102" value="&lt;font size=&quot;3&quot;&gt;OUT8&lt;/font&gt;" style="rounded=0;whiteSpace=wrap;html=1;rotation=0;rotatable=1;horizontal=0;" vertex="1" parent="l0DQeBJ68RX_tayqkEdG-71">
          <mxGeometry x="140" y="130" width="20" height="60" as="geometry" />
        </mxCell>
        <mxCell id="l0DQeBJ68RX_tayqkEdG-103" value="&lt;font size=&quot;3&quot;&gt;OUT9&lt;/font&gt;" style="rounded=0;whiteSpace=wrap;html=1;rotation=0;rotatable=1;horizontal=0;" vertex="1" parent="l0DQeBJ68RX_tayqkEdG-71">
          <mxGeometry x="160" y="130" width="20" height="60" as="geometry" />
        </mxCell>
        <mxCell id="l0DQeBJ68RX_tayqkEdG-104" value="&lt;font size=&quot;3&quot;&gt;OUT10&lt;/font&gt;" style="rounded=0;whiteSpace=wrap;html=1;rotation=0;rotatable=1;horizontal=0;" vertex="1" parent="l0DQeBJ68RX_tayqkEdG-71">
          <mxGeometry x="180" y="130" width="20" height="60" as="geometry" />
        </mxCell>
        <mxCell id="l0DQeBJ68RX_tayqkEdG-105" value="&lt;font size=&quot;3&quot;&gt;OUT11&lt;/font&gt;" style="rounded=0;whiteSpace=wrap;html=1;rotation=0;rotatable=1;horizontal=0;" vertex="1" parent="l0DQeBJ68RX_tayqkEdG-71">
          <mxGeometry x="200" y="130" width="20" height="60" as="geometry" />
        </mxCell>
        <mxCell id="l0DQeBJ68RX_tayqkEdG-106" value="&lt;font size=&quot;3&quot;&gt;OUT12&lt;/font&gt;" style="rounded=0;whiteSpace=wrap;html=1;rotation=0;rotatable=1;horizontal=0;" vertex="1" parent="l0DQeBJ68RX_tayqkEdG-71">
          <mxGeometry x="220" y="130" width="20" height="60" as="geometry" />
        </mxCell>
        <mxCell id="l0DQeBJ68RX_tayqkEdG-107" style="edgeStyle=orthogonalEdgeStyle;rounded=0;jumpStyle=arc;orthogonalLoop=1;jettySize=auto;html=1;exitX=0.5;exitY=1;exitDx=0;exitDy=0;endArrow=oval;endFill=1;endSize=6;strokeColor=#000000;strokeWidth=1;entryX=0.5;entryY=1;entryDx=0;entryDy=0;" edge="1" parent="1" source="l0DQeBJ68RX_tayqkEdG-96" target="l0DQeBJ68RX_tayqkEdG-108">
          <mxGeometry relative="1" as="geometry">
            <mxPoint x="120" y="450" as="targetPoint" />
            <Array as="points">
              <mxPoint x="190" y="650" />
              <mxPoint x="150" y="650" />
              <mxPoint x="150" y="520" />
              <mxPoint x="62" y="520" />
            </Array>
          </mxGeometry>
        </mxCell>
        <mxCell id="l0DQeBJ68RX_tayqkEdG-108" value="Bass" style="rounded=0;whiteSpace=wrap;html=1;" vertex="1" parent="1">
          <mxGeometry x="30" y="290" width="65" height="40" as="geometry" />
        </mxCell>
        <mxCell id="l0DQeBJ68RX_tayqkEdG-109" style="edgeStyle=orthogonalEdgeStyle;rounded=0;jumpStyle=arc;orthogonalLoop=1;jettySize=auto;html=1;exitX=0.5;exitY=1;exitDx=0;exitDy=0;endArrow=none;endFill=0;endSize=6;strokeColor=#000000;strokeWidth=1;" edge="1" parent="1" source="l0DQeBJ68RX_tayqkEdG-101">
          <mxGeometry relative="1" as="geometry">
            <mxPoint x="290" y="730" as="targetPoint" />
          </mxGeometry>
        </mxCell>
        <mxCell id="l0DQeBJ68RX_tayqkEdG-110" style="edgeStyle=orthogonalEdgeStyle;rounded=0;jumpStyle=arc;orthogonalLoop=1;jettySize=auto;html=1;exitX=0.5;exitY=1;exitDx=0;exitDy=0;endArrow=none;endFill=0;endSize=6;strokeColor=#000000;strokeWidth=1;" edge="1" parent="1" source="l0DQeBJ68RX_tayqkEdG-102">
          <mxGeometry relative="1" as="geometry">
            <mxPoint x="310" y="730" as="targetPoint" />
          </mxGeometry>
        </mxCell>
        <mxCell id="l0DQeBJ68RX_tayqkEdG-111" style="edgeStyle=orthogonalEdgeStyle;rounded=0;jumpStyle=arc;orthogonalLoop=1;jettySize=auto;html=1;exitX=0.5;exitY=1;exitDx=0;exitDy=0;endArrow=none;endFill=0;endSize=6;strokeColor=#000000;strokeWidth=1;" edge="1" parent="1" source="l0DQeBJ68RX_tayqkEdG-103">
          <mxGeometry relative="1" as="geometry">
            <mxPoint x="330" y="730" as="targetPoint" />
          </mxGeometry>
        </mxCell>
        <mxCell id="l0DQeBJ68RX_tayqkEdG-112" style="edgeStyle=orthogonalEdgeStyle;rounded=0;jumpStyle=arc;orthogonalLoop=1;jettySize=auto;html=1;exitX=0.5;exitY=1;exitDx=0;exitDy=0;entryX=1;entryY=0.5;entryDx=0;entryDy=0;endArrow=oval;endFill=1;endSize=6;strokeColor=#000000;strokeWidth=1;" edge="1" parent="1" source="l0DQeBJ68RX_tayqkEdG-104" target="l0DQeBJ68RX_tayqkEdG-130">
          <mxGeometry relative="1" as="geometry" />
        </mxCell>
        <mxCell id="l0DQeBJ68RX_tayqkEdG-113" style="edgeStyle=orthogonalEdgeStyle;rounded=0;jumpStyle=arc;orthogonalLoop=1;jettySize=auto;html=1;exitX=0.5;exitY=1;exitDx=0;exitDy=0;endArrow=none;endFill=0;endSize=6;strokeColor=#000000;strokeWidth=1;" edge="1" parent="1" source="l0DQeBJ68RX_tayqkEdG-105">
          <mxGeometry relative="1" as="geometry">
            <mxPoint x="369.9047619047619" y="660" as="targetPoint" />
          </mxGeometry>
        </mxCell>
        <mxCell id="l0DQeBJ68RX_tayqkEdG-114" style="edgeStyle=orthogonalEdgeStyle;rounded=0;jumpStyle=arc;orthogonalLoop=1;jettySize=auto;html=1;exitX=0.5;exitY=1;exitDx=0;exitDy=0;endArrow=none;endFill=0;endSize=6;strokeColor=#000000;strokeWidth=1;" edge="1" parent="1" source="l0DQeBJ68RX_tayqkEdG-95">
          <mxGeometry relative="1" as="geometry">
            <mxPoint x="169.90476190476193" y="660" as="targetPoint" />
          </mxGeometry>
        </mxCell>
        <mxCell id="l0DQeBJ68RX_tayqkEdG-115" style="edgeStyle=orthogonalEdgeStyle;rounded=0;jumpStyle=arc;orthogonalLoop=1;jettySize=auto;html=1;exitX=0.5;exitY=1;exitDx=0;exitDy=0;endArrow=none;endFill=0;endSize=6;strokeColor=#000000;strokeWidth=1;" edge="1" parent="1" source="l0DQeBJ68RX_tayqkEdG-97">
          <mxGeometry relative="1" as="geometry">
            <mxPoint x="209.90476190476193" y="680" as="targetPoint" />
          </mxGeometry>
        </mxCell>
        <mxCell id="l0DQeBJ68RX_tayqkEdG-116" style="edgeStyle=orthogonalEdgeStyle;rounded=0;jumpStyle=arc;orthogonalLoop=1;jettySize=auto;html=1;exitX=0.5;exitY=1;exitDx=0;exitDy=0;entryX=1;entryY=0.5;entryDx=0;entryDy=0;endArrow=oval;endFill=1;endSize=6;strokeColor=#000000;strokeWidth=1;" edge="1" parent="1" source="l0DQeBJ68RX_tayqkEdG-98" target="l0DQeBJ68RX_tayqkEdG-126">
          <mxGeometry relative="1" as="geometry" />
        </mxCell>
        <mxCell id="l0DQeBJ68RX_tayqkEdG-117" value="" style="group" vertex="1" connectable="0" parent="1">
          <mxGeometry y="580" width="120" height="240" as="geometry" />
        </mxCell>
        <mxCell id="l0DQeBJ68RX_tayqkEdG-118" value="Endstufen" style="rounded=0;whiteSpace=wrap;html=1;labelPosition=center;verticalLabelPosition=middle;align=left;verticalAlign=top;" vertex="1" parent="l0DQeBJ68RX_tayqkEdG-117">
          <mxGeometry width="120" height="240" as="geometry" />
        </mxCell>
        <mxCell id="l0DQeBJ68RX_tayqkEdG-119" value="" style="group" vertex="1" connectable="0" parent="l0DQeBJ68RX_tayqkEdG-117">
          <mxGeometry y="40" width="120" height="40" as="geometry" />
        </mxCell>
        <mxCell id="l0DQeBJ68RX_tayqkEdG-120" value="Audac 442" style="rounded=0;whiteSpace=wrap;html=1;" vertex="1" parent="l0DQeBJ68RX_tayqkEdG-119">
          <mxGeometry width="120" height="20" as="geometry" />
        </mxCell>
        <mxCell id="l0DQeBJ68RX_tayqkEdG-121" value="L" style="rounded=0;whiteSpace=wrap;html=1;" vertex="1" parent="l0DQeBJ68RX_tayqkEdG-119">
          <mxGeometry y="20" width="30" height="20" as="geometry" />
        </mxCell>
        <mxCell id="l0DQeBJ68RX_tayqkEdG-122" value="R" style="rounded=0;whiteSpace=wrap;html=1;" vertex="1" parent="l0DQeBJ68RX_tayqkEdG-119">
          <mxGeometry x="30" y="20" width="30" height="20" as="geometry" />
        </mxCell>
        <mxCell id="l0DQeBJ68RX_tayqkEdG-123" value="Cen" style="rounded=0;whiteSpace=wrap;html=1;" vertex="1" parent="l0DQeBJ68RX_tayqkEdG-119">
          <mxGeometry x="60" y="20" width="30" height="20" as="geometry" />
        </mxCell>
        <mxCell id="l0DQeBJ68RX_tayqkEdG-124" value="NP" style="rounded=0;whiteSpace=wrap;html=1;" vertex="1" parent="l0DQeBJ68RX_tayqkEdG-119">
          <mxGeometry x="90" y="20" width="30" height="20" as="geometry" />
        </mxCell>
        <mxCell id="l0DQeBJ68RX_tayqkEdG-125" value="" style="group" vertex="1" connectable="0" parent="l0DQeBJ68RX_tayqkEdG-117">
          <mxGeometry y="90" width="120" height="40" as="geometry" />
        </mxCell>
        <mxCell id="l0DQeBJ68RX_tayqkEdG-126" value="Audac 242" style="rounded=0;whiteSpace=wrap;html=1;" vertex="1" parent="l0DQeBJ68RX_tayqkEdG-125">
          <mxGeometry width="120" height="20" as="geometry" />
        </mxCell>
        <mxCell id="l0DQeBJ68RX_tayqkEdG-127" value="Eff-Foyer" style="rounded=0;whiteSpace=wrap;html=1;" vertex="1" parent="l0DQeBJ68RX_tayqkEdG-125">
          <mxGeometry y="20" width="60" height="20" as="geometry" />
        </mxCell>
        <mxCell id="l0DQeBJ68RX_tayqkEdG-128" value="Eff-HiBÃ¼" style="rounded=0;whiteSpace=wrap;html=1;" vertex="1" parent="l0DQeBJ68RX_tayqkEdG-125">
          <mxGeometry x="60" y="20" width="60" height="20" as="geometry" />
        </mxCell>
        <mxCell id="l0DQeBJ68RX_tayqkEdG-129" value="" style="group" vertex="1" connectable="0" parent="l0DQeBJ68RX_tayqkEdG-117">
          <mxGeometry y="140" width="120" height="40" as="geometry" />
        </mxCell>
        <mxCell id="l0DQeBJ68RX_tayqkEdG-130" value="Audac 442" style="rounded=0;whiteSpace=wrap;html=1;" vertex="1" parent="l0DQeBJ68RX_tayqkEdG-129">
          <mxGeometry width="120" height="20" as="geometry" />
        </mxCell>
        <mxCell id="l0DQeBJ68RX_tayqkEdG-131" value="OpR" style="rounded=0;whiteSpace=wrap;html=1;" vertex="1" parent="l0DQeBJ68RX_tayqkEdG-129">
          <mxGeometry y="20" width="30" height="20" as="geometry" />
        </mxCell>
        <mxCell id="l0DQeBJ68RX_tayqkEdG-132" value="OpL" style="rounded=0;whiteSpace=wrap;html=1;" vertex="1" parent="l0DQeBJ68RX_tayqkEdG-129">
          <mxGeometry x="30" y="20" width="30" height="20" as="geometry" />
        </mxCell>
        <mxCell id="l0DQeBJ68RX_tayqkEdG-133" value="ReR" style="rounded=0;whiteSpace=wrap;html=1;" vertex="1" parent="l0DQeBJ68RX_tayqkEdG-129">
          <mxGeometry x="60" y="20" width="30" height="20" as="geometry" />
        </mxCell>
        <mxCell id="l0DQeBJ68RX_tayqkEdG-134" value="ReL" style="rounded=0;whiteSpace=wrap;html=1;" vertex="1" parent="l0DQeBJ68RX_tayqkEdG-129">
          <mxGeometry x="90" y="20" width="30" height="20" as="geometry" />
        </mxCell>
        <mxCell id="l0DQeBJ68RX_tayqkEdG-135" value="" style="group" vertex="1" connectable="0" parent="l0DQeBJ68RX_tayqkEdG-117">
          <mxGeometry y="190" width="120" height="40" as="geometry" />
        </mxCell>
        <mxCell id="l0DQeBJ68RX_tayqkEdG-136" value="Audac 442" style="rounded=0;whiteSpace=wrap;html=1;" vertex="1" parent="l0DQeBJ68RX_tayqkEdG-135">
          <mxGeometry width="120" height="20" as="geometry" />
        </mxCell>
        <mxCell id="l0DQeBJ68RX_tayqkEdG-137" value="Foy" style="rounded=0;whiteSpace=wrap;html=1;" vertex="1" parent="l0DQeBJ68RX_tayqkEdG-135">
          <mxGeometry y="20" width="30" height="20" as="geometry" />
        </mxCell>
        <mxCell id="l0DQeBJ68RX_tayqkEdG-138" value="Foy" style="rounded=0;whiteSpace=wrap;html=1;" vertex="1" parent="l0DQeBJ68RX_tayqkEdG-135">
          <mxGeometry x="30" y="20" width="30" height="20" as="geometry" />
        </mxCell>
        <mxCell id="l0DQeBJ68RX_tayqkEdG-139" value="NP" style="rounded=0;whiteSpace=wrap;html=1;" vertex="1" parent="l0DQeBJ68RX_tayqkEdG-135">
          <mxGeometry x="60" y="20" width="30" height="20" as="geometry" />
        </mxCell>
        <mxCell id="l0DQeBJ68RX_tayqkEdG-140" value="NP" style="rounded=0;whiteSpace=wrap;html=1;" vertex="1" parent="l0DQeBJ68RX_tayqkEdG-135">
          <mxGeometry x="90" y="20" width="30" height="20" as="geometry" />
        </mxCell>
        <mxCell id="l0DQeBJ68RX_tayqkEdG-141" style="edgeStyle=orthogonalEdgeStyle;rounded=0;jumpStyle=arc;orthogonalLoop=1;jettySize=auto;html=1;exitX=0.5;exitY=1;exitDx=0;exitDy=0;entryX=0;entryY=0.75;entryDx=0;entryDy=0;endArrow=oval;endFill=1;endSize=6;strokeColor=#000000;strokeWidth=1;" edge="1" parent="1" source="l0DQeBJ68RX_tayqkEdG-99" target="l0DQeBJ68RX_tayqkEdG-19">
          <mxGeometry relative="1" as="geometry">
            <Array as="points">
              <mxPoint x="250" y="680" />
              <mxPoint x="580" y="680" />
              <mxPoint x="580" y="610" />
            </Array>
          </mxGeometry>
        </mxCell>
        <mxCell id="l0DQeBJ68RX_tayqkEdG-142" value="" style="group" vertex="1" connectable="0" parent="1">
          <mxGeometry x="1080" y="20" width="80" height="770" as="geometry" />
        </mxCell>
        <mxCell id="l0DQeBJ68RX_tayqkEdG-143" value="1&lt;br&gt;2&lt;br&gt;3&lt;br&gt;4&lt;br&gt;5&lt;br&gt;6&lt;br&gt;7&lt;br&gt;8&lt;br&gt;9&lt;br&gt;10&lt;br&gt;11&lt;br&gt;12&lt;br&gt;13&lt;br&gt;14&lt;br&gt;15&lt;br&gt;16&lt;br&gt;17&lt;br&gt;18&lt;br&gt;19&lt;br&gt;20&lt;br&gt;21&lt;br&gt;22&lt;br&gt;23&lt;br&gt;24&lt;br&gt;25&lt;br&gt;26&lt;br&gt;27&lt;br&gt;28&lt;br&gt;29&lt;br&gt;30&lt;br&gt;31&lt;br&gt;32&lt;br&gt;33&lt;br&gt;34&lt;br&gt;35&lt;br&gt;36&lt;br&gt;37&lt;br&gt;38&lt;br&gt;39&lt;br&gt;40&lt;br&gt;41&lt;br&gt;42" style="rounded=0;whiteSpace=wrap;html=1;strokeColor=#000000;align=right;verticalAlign=top;" vertex="1" parent="l0DQeBJ68RX_tayqkEdG-142">
          <mxGeometry width="20" height="770" as="geometry" />
        </mxCell>
        <mxCell id="l0DQeBJ68RX_tayqkEdG-144" value="DVD-L&lt;br&gt;DVD-R&lt;br&gt;Probe-L&lt;br&gt;Probe-R&lt;br&gt;Effekt Lex&lt;br&gt;Pad&lt;br&gt;PS4&lt;br&gt;-&lt;br&gt;Funk1&lt;br&gt;Funk2&lt;br&gt;Funk3&lt;br&gt;Funk4&lt;br&gt;Funk5&lt;br&gt;Funk6&lt;br&gt;Funk7&lt;br&gt;Funk8&lt;br&gt;DX1&lt;br&gt;DX2&lt;br&gt;DX3&lt;br&gt;DX4&lt;br&gt;DX5&lt;br&gt;DX6&lt;br&gt;DX7&lt;br&gt;DX8&lt;br&gt;DX9&lt;br&gt;DX10&lt;br&gt;Funk9&lt;br&gt;Funk10&lt;br&gt;Funk11&lt;br&gt;Funk12&lt;br&gt;ST-L&lt;br&gt;ST-R&lt;br&gt;Opera-L&lt;br&gt;Opera-R&lt;br&gt;Rear-L&lt;br&gt;Rear-R&lt;br&gt;Eff-Foyer&lt;br&gt;Eff-HiBÃ¼&lt;br&gt;Foyer&lt;br&gt;Funk&lt;br&gt;-&lt;br&gt;-" style="rounded=0;whiteSpace=wrap;html=1;strokeColor=#000000;align=left;verticalAlign=top;" vertex="1" parent="l0DQeBJ68RX_tayqkEdG-142">
          <mxGeometry x="20" width="60" height="770" as="geometry" />
        </mxCell>
      </root>
    </mxGraphModel>
  </diagram>
</mxfile>
